# xmcd
#
# Track frame offsets:
#	150
#	15508
#	29982
#	43838
#	57241
#	71778
#	87515
#	102889
#	120482
#	138026
#	153986
#	171464
#	186009
#	206638
#	224271
#	241759
#	262951
#	279358
#	298005
#	315891
#	334917
#
# Disc length: 4724 seconds
#
# Revision: 1
# Processed by: cddbd v1.5.2PL0 Copyright (c) Steve Scherf et al.
# Submitted via: audiograbber 1.83.01
#
DISCID=34127215
DTITLE=Various Artist - Urban Radio 2007/05
DYEAR=2007
DGENRE=Hip Hop, Rap
TTITLE0=Kat DeLuna - Wine Up feat. Elephant Man
TTITLE1=Petey Pablo - Get Me Out Of Jail
TTITLE2=Mr. Vegas - Hot Wuk
TTITLE3=Omarion - Beg For It
TTITLE4=Eve - Tambourine feat. Swizz Beatz
TTITLE5=Daddy Yankee - Impacto (Remix)  feat. Fergie
TTITLE6=Mims - Like This
TTITLE7=Justin Timberlake - Summer Love Remix  feat. Stat Quo
TTITLE8=Zion - The Way She Moves feat. Akon
TTITLE9=Code Red - Summer Jam
TTITLE10=Rich Boy - Boy Looka Here
TTITLE11=50 Cent - Straight To The Bank
TTITLE12=Lloyd - Valentine
TTITLE13=Mike Jones - My 6 4   feat. Snoop Dogg and Bun B
TTITLE14=Tank - Please Don't Go
TTITLE15=Collie Buddz - Come Around (Remix)
TTITLE16=Birdman and Lil Wayne - You Aint Know
TTITLE17=Yung Joc - Coffee Shop
TTITLE18=Elephant Man - Five O feat. Wyclef
TTITLE19=Da Shop Boyz - Rock Star
TTITLE20=Musiq Soulchild - Teachme
EXTD=
EXTT0=
EXTT1=
EXTT2=
EXTT3=
EXTT4=
EXTT5=
EXTT6=
EXTT7=
EXTT8=
EXTT9=
EXTT10=
EXTT11=
EXTT12=
EXTT13=
EXTT14=
EXTT15=
EXTT16=
EXTT17=
EXTT18=
EXTT19=
EXTT20=
PLAYORDER=
